<svg xmlns="http://www.w3.org/2000/svg" viewBox="0 0 720 420"><defs><linearGradient id="g" x1="0" y1="0" x2="0" y2="1"><stop stop-color="#8b5fbf"/><stop offset=".46" stop-color="#e9878d"/><stop offset=".72" stop-color="#f3c978"/><stop offset="1" stop-color="#236f83"/></linearGradient></defs><rect width="720" height="420" rx="36" fill="url(#g)"/><circle cx="360" cy="205" r="74" fill="#ffe69f"/><rect y="278" width="720" height="142" fill="#174e65"/><path d="M0 300C130 260 240 330 365 292C500 250 620 320 720 284" fill="none" stroke="#8ddfdc" stroke-width="14" opacity=".55"/><g transform="translate(92 90)"><path d="M0 240C20 150 25 70 15 10" stroke="#5c3a2a" stroke-width="20"/><path d="M15 28C-42-8-88 8-120 38C-68 52-25 48 15 28Z" fill="#254d54"/><path d="M15 28C72-12 118 6 148 36C96 51 54 49 15 28Z" fill="#254d54"/></g></svg>